<?xml version="1.0" encoding="UTF-8"?> <svg xmlns="http://www.w3.org/2000/svg" width="61" height="45" viewBox="0 0 61 45" fill="none"><g clip-path="url(#clip0_510_353)"><path d="M60.0429 20.9839L54.1303 15.1L60.0429 9.18603L60.5505 8.64567L60.0429 8.13533L56.1011 4.17268L55.5636 3.63232L55.056 4.17268L49.1433 10.0866L43.2905 4.17268L42.7828 3.63232L42.2453 4.17268L38.3035 8.13533L37.7959 8.64567L38.3035 9.18603L44.1564 15.1L38.3035 20.9839L37.7959 21.5243L38.3035 22.0346L42.2453 25.9972L42.7828 26.5376L43.2905 25.9972L49.1433 20.1133L55.056 25.9972L55.5636 26.5376L56.1011 25.9972L60.0429 22.0346L60.5505 21.5243L60.0429 20.9839Z" fill="#164A76"></path><path d="M27.3445 3.3022V31.0407H34.6606V0L27.3445 3.3022Z" fill="#164A76"></path><path d="M15.5491 19.9933C15.4296 22.485 13.3095 24.3762 10.8309 24.2561C8.35242 24.1361 6.47113 22.0046 6.59058 19.513C6.71002 17.0213 8.8302 15.1301 11.3087 15.2501C13.6081 15.3702 15.4296 17.2315 15.5491 19.513V19.9933ZM15.5491 8.58569V9.54633C9.96495 7.08469 3.42523 9.63639 0.946713 15.2501C-1.53181 20.8639 1.0363 27.4383 6.62044 29.9299C9.4573 31.1908 12.7122 31.1908 15.5491 29.9299V31.0106H22.8652V8.58569H15.5491Z" fill="#164A76"></path><path d="M5.18691 44.9999C4.50009 44.9999 3.84314 44.8798 3.27576 44.6697C2.70839 44.4295 2.23061 44.0993 1.81254 43.709C1.39448 43.3188 1.09586 42.8084 0.886828 42.2681C0.677796 41.6977 0.55835 41.0973 0.55835 40.4669C0.55835 39.8364 0.677796 39.206 0.91669 38.6657C1.15558 38.1253 1.48406 37.645 1.90213 37.2247C2.32019 36.8044 2.82784 36.5042 3.39521 36.2641C3.96258 36.0239 4.58968 35.9338 5.2765 35.9338C5.75429 35.9338 6.20221 35.9939 6.65014 36.114C7.0682 36.234 7.4564 36.4142 7.81474 36.6243C8.17308 36.8344 8.4717 37.1046 8.71059 37.3748L7.42654 38.7557C7.21751 38.5456 7.00848 38.3955 6.76958 38.2454C6.56055 38.1253 6.32166 38.0052 6.0529 37.9152C5.81401 37.8251 5.54525 37.7951 5.24664 37.7951C4.8883 37.7951 4.55982 37.8551 4.23134 38.0052C3.93272 38.1253 3.66397 38.3354 3.42507 38.5756C3.18618 38.8158 3.00701 39.0859 2.88756 39.4162C2.76812 39.7464 2.70839 40.0766 2.70839 40.4669C2.70839 40.8571 2.76812 41.1873 2.91742 41.5176C3.03687 41.8478 3.2459 42.118 3.45493 42.3581C3.69383 42.5983 3.96258 42.7784 4.29106 42.9285C4.61954 43.0786 4.94802 43.1386 5.33622 43.1386C5.60498 43.1386 5.84387 43.1086 6.0529 43.0186C6.2918 42.9285 6.47097 42.8084 6.65014 42.6883C6.82931 42.5382 6.94875 42.3881 7.03834 42.178C7.12792 41.9679 7.18765 41.7577 7.18765 41.5476V41.2174L7.4564 41.6376H5.09733V39.9265H9.21824C9.24811 40.0166 9.2481 40.1366 9.2481 40.3168C9.2481 40.4969 9.2481 40.617 9.27797 40.7671V41.0973C9.27797 41.6677 9.18838 42.178 8.97935 42.6583C8.77032 43.1386 8.50156 43.5289 8.11336 43.8891C7.75502 44.2194 7.30709 44.4895 6.82931 44.6997C6.2918 44.8798 5.75429 44.9999 5.18691 44.9999Z" fill="#164A76"></path><path d="M12.6226 44.8798V36.084H14.7427V42.9886H18.6248V44.8798H12.6226Z" fill="#164A76"></path><path d="M25.9706 45.0001C25.3137 45.0001 24.6866 44.88 24.1491 44.6699C23.6115 44.4597 23.1338 44.1295 22.7157 43.7092C22.2976 43.289 21.999 42.8086 21.7601 42.2683C21.5212 41.7279 21.4316 41.0975 21.4316 40.4371C21.4316 39.7766 21.5511 39.1762 21.7601 38.6058C21.999 38.0655 22.2976 37.5852 22.7157 37.1649C23.1338 36.7446 23.6115 36.4444 24.1491 36.2042C24.6866 35.9641 25.3137 35.874 25.9706 35.874C26.6276 35.874 27.2248 35.9941 27.7922 36.2042C28.3596 36.4144 28.8075 36.7446 29.2255 37.1649C29.6436 37.5852 29.9422 38.0655 30.1811 38.6058C30.3902 39.1462 30.5096 39.7766 30.5096 40.4371C30.5096 41.0975 30.3902 41.6979 30.1811 42.2383C29.9721 42.8086 29.6436 43.289 29.2255 43.6792C28.8075 44.0995 28.3297 44.3997 27.7922 44.6399C27.2547 44.88 26.6276 45.0001 25.9706 45.0001ZM25.9408 42.9888C26.2692 42.9888 26.5977 42.9287 26.8963 42.8086C27.195 42.6886 27.4338 42.5084 27.6429 42.2683C27.8519 42.0281 28.0311 41.7579 28.1505 41.4577C28.27 41.1575 28.3297 40.7973 28.3297 40.4371C28.3297 40.0768 28.27 39.7166 28.1505 39.4164C28.0311 39.1162 27.8818 38.846 27.6429 38.6058C27.4338 38.3657 27.195 38.1856 26.8963 38.0655C26.5977 37.9454 26.2991 37.8854 25.9408 37.8854C25.6123 37.8854 25.2838 37.9454 24.9852 38.0655C24.6866 38.1856 24.4477 38.3657 24.2386 38.6058C24.0296 38.846 23.8504 39.1162 23.731 39.4164C23.6115 39.7166 23.5518 40.0768 23.5518 40.4371C23.5518 40.7973 23.6115 41.1575 23.731 41.4577C23.8504 41.7579 23.9997 42.0281 24.2386 42.2683C24.4477 42.5084 24.7164 42.6585 24.9852 42.8086C25.2838 42.9287 25.6123 42.9888 25.9408 42.9888Z" fill="#164A76"></path><path d="M33.884 44.8799V36.084H37.7362C38.3334 36.084 38.8411 36.174 39.2591 36.3542C39.6772 36.5343 39.9758 36.7744 40.2147 37.1047C40.4536 37.4349 40.5432 37.8251 40.5432 38.2754C40.5432 38.7858 40.4237 39.2061 40.1849 39.5363C39.946 39.8665 39.5876 40.1067 39.1098 40.2267L39.08 39.9866C39.4682 40.0766 39.7967 40.2267 40.0953 40.4369C40.3939 40.647 40.6029 40.9172 40.7522 41.2174C40.9015 41.5176 40.9911 41.8778 40.9911 42.2681C40.9911 42.7184 40.9015 43.1087 40.7522 43.4389C40.6029 43.7691 40.3939 44.0393 40.0953 44.2794C39.8265 44.5196 39.4682 44.6697 39.1098 44.7898C38.7216 44.9099 38.3036 44.9399 37.8556 44.9399H33.884V44.8799ZM35.8848 39.5963H37.4376C37.6466 39.5963 37.8258 39.5663 38.0049 39.4762C38.1543 39.4162 38.2737 39.2961 38.3633 39.176C38.4529 39.056 38.4827 38.8758 38.4827 38.6957C38.4827 38.4255 38.3932 38.2154 38.214 38.0653C38.0348 37.9152 37.7661 37.8251 37.3779 37.8251H35.8848V39.5963ZM35.8848 43.0786H37.7959C38.0348 43.0786 38.214 43.0486 38.3932 42.9586C38.5723 42.8685 38.6918 42.7784 38.7814 42.6283C38.8709 42.4782 38.9307 42.2981 38.9307 42.088C38.9307 41.9079 38.8709 41.7278 38.7814 41.6077C38.6918 41.4876 38.5425 41.3675 38.3633 41.3075C38.1841 41.2474 37.9751 41.1874 37.7362 41.1874H35.8848V43.0786Z" fill="#164A76"></path><path d="M43.2607 44.8798L46.7247 36.084H48.5164L51.9505 44.8798H49.8005L48.1581 40.4369C48.0983 40.2568 48.0386 40.0766 47.949 39.8665C47.8594 39.6564 47.8296 39.4462 47.74 39.2361C47.6803 39.0259 47.6206 38.8158 47.5608 38.6057C47.5011 38.3955 47.4414 38.2154 47.4115 38.0353H47.7997C47.74 38.2454 47.6803 38.4556 47.6206 38.6357C47.5608 38.8458 47.5011 39.0259 47.4414 39.2361C47.3817 39.4462 47.3219 39.6263 47.2324 39.8365C47.1726 40.0466 47.083 40.2267 47.0233 40.4369L45.3809 44.8798H43.2607ZM44.9031 43.1687L45.5601 41.5476H49.5914L50.2484 43.1687H44.9031Z" fill="#164A76"></path><path d="M54.7874 44.8798V36.084H56.9075V42.9886H60.7896V44.8798H54.7874Z" fill="#164A76"></path></g><defs><clipPath id="clip0_510_353"><rect width="60.7895" height="45" fill="white"></rect></clipPath></defs></svg> 